%FSDAX24Y24*%
%MOIN*%
%SFA1B1*%

%IPPOS*%
%ADD31C,0.005000*%
%ADD53C,0.006700*%
%LNde-220124-1*%
%LPD*%
G54D31*
X017500Y081750D02*
Y082150D01*
X017900*
Y081750*
X017500*
Y080750D02*
Y081150D01*
X017900*
Y080750*
X017500*
Y079750D02*
Y080150D01*
X017900*
Y079750*
X017500*
X021866Y086750D02*
X021666Y087150D01*
X022066*
X021866Y086750*
X023834D02*
X023634Y087150D01*
X024034*
X023834Y086750*
X026219Y066450D02*
X026019Y066850D01*
X026418*
X026219Y066450*
X024250D02*
X024050Y066850D01*
X024450*
X024250Y066450*
X040266Y086700D02*
X040066Y087100D01*
X040466*
X040266Y086700*
X042234D02*
X042034Y087100D01*
X042434*
X042234Y086700*
X049934Y066450D02*
X049734Y066850D01*
X050134*
X049934Y066450*
X047966D02*
X047766Y066850D01*
X048166*
X047966Y066450*
X042234D02*
X042034Y066850D01*
X042434*
X042234Y066450*
X040266D02*
X040066Y066850D01*
X040466*
X040266Y066450*
X047916Y086700D02*
X047716Y087100D01*
X048116*
X047916Y086700*
X049884D02*
X049684Y087100D01*
X050084*
X049884Y086700*
X032116D02*
X031916Y087100D01*
X032316*
X032116Y086700*
X034084D02*
X033884Y087100D01*
X034284*
X034084Y086700*
X018419Y066450D02*
X018218Y066850D01*
X018619*
X018419Y066450*
X016450D02*
X016250Y066850D01*
X016650*
X016450Y066450*
X015284Y086800D02*
X015084Y087200D01*
X015484*
X015284Y086800*
X013316D02*
X013116Y087200D01*
X013516*
X013316Y086800*
X034084Y066450D02*
X033884Y066850D01*
X034284*
X034084Y066450*
X032116D02*
X031916Y066850D01*
X032316*
X032116Y066450*
X021400Y082100D02*
X021500Y082200D01*
X021600*
X021500Y082300*
X021600Y082400*
X021500*
X021400Y082500*
X021300Y082400*
X021200*
X021300Y082300*
X021200Y082200*
X021300*
X021400Y082100*
X024850Y082900D02*
X024950Y083000D01*
X025050*
X024950Y083100*
X025050Y083200*
X024950*
X024850Y083300*
X024750Y083200*
X024650*
X024750Y083100*
X024650Y083000*
X024750*
X024850Y082900*
X023800Y083750D02*
X023900Y083850D01*
X024000*
X023900Y083950*
X024000Y084050*
X023900*
X023800Y084150*
X023700Y084050*
X023600*
X023700Y083950*
X023600Y083850*
X023700*
X023800Y083750*
X023850Y080550D02*
X023950Y080650D01*
X024050*
X023950Y080750*
X024050Y080850*
X023950*
X023850Y080950*
X023750Y080850*
X023650*
X023750Y080750*
X023650Y080650*
X023750*
X023850Y080550*
X023100D02*
X023200Y080650D01*
X023300*
X023200Y080750*
X023300Y080850*
X023200*
X023100Y080950*
X023000Y080850*
X022900*
X023000Y080750*
X022900Y080650*
X023000*
X023100Y080550*
X021700Y078400D02*
X021800Y078500D01*
X021900*
X021800Y078600*
X021900Y078700*
X021800*
X021700Y078800*
X021600Y078700*
X021500*
X021600Y078600*
X021500Y078500*
X021600*
X021700Y078400*
X027050Y072000D02*
X027150Y072100D01*
X027250*
X027150Y072200*
X027250Y072300*
X027150*
X027050Y072400*
X026950Y072300*
X026850*
X026950Y072200*
X026850Y072100*
X026950*
X027050Y072000*
X024550Y070400D02*
X024650Y070500D01*
X024750*
X024650Y070600*
X024750Y070700*
X024650*
X024550Y070800*
X024450Y070700*
X024350*
X024450Y070600*
X024350Y070500*
X024450*
X024550Y070400*
X023450Y071350D02*
X023550Y071450D01*
X023650*
X023550Y071550*
X023650Y071650*
X023550*
X023450Y071750*
X023350Y071650*
X023250*
X023350Y071550*
X023250Y071450*
X023350*
X023450Y071350*
X024650Y073600D02*
X024750Y073700D01*
X024850*
X024750Y073800*
X024850Y073900*
X024750*
X024650Y074000*
X024550Y073900*
X024450*
X024550Y073800*
X024450Y073700*
X024550*
X024650Y073600*
X025400D02*
X025500Y073700D01*
X025600*
X025500Y073800*
X025600Y073900*
X025500*
X025400Y074000*
X025300Y073900*
X025200*
X025300Y073800*
X025200Y073700*
X025300*
X025400Y073600*
X026850Y075850D02*
X026950Y075950D01*
X027050*
X026950Y076050*
X027050Y076150*
X026950*
X026850Y076250*
X026750Y076150*
X026650*
X026750Y076050*
X026650Y075950*
X026750*
X026850Y075850*
X034550Y075750D02*
X034650Y075850D01*
X034750*
X034650Y075950*
X034750Y076050*
X034650*
X034550Y076150*
X034450Y076050*
X034350*
X034450Y075950*
X034350Y075850*
X034450*
X034550Y075750*
X032450Y070400D02*
X032550Y070500D01*
X032650*
X032550Y070600*
X032650Y070700*
X032550*
X032450Y070800*
X032350Y070700*
X032250*
X032350Y070600*
X032250Y070500*
X032350*
X032450Y070400*
X031400Y071300D02*
X031500Y071400D01*
X031600*
X031500Y071500*
X031600Y071600*
X031500*
X031400Y071700*
X031300Y071600*
X031200*
X031300Y071500*
X031200Y071400*
X031300*
X031400Y071300*
X032450Y073600D02*
X032550Y073700D01*
X032650*
X032550Y073800*
X032650Y073900*
X032550*
X032450Y074000*
X032350Y073900*
X032250*
X032350Y073800*
X032250Y073700*
X032350*
X032450Y073600*
X033200D02*
X033300Y073700D01*
X033400*
X033300Y073800*
X033400Y073900*
X033300*
X033200Y074000*
X033100Y073900*
X033000*
X033100Y073800*
X033000Y073700*
X033100*
X033200Y073600*
X034800Y071950D02*
X034900Y072050D01*
X035000*
X034900Y072150*
X035000Y072250*
X034900*
X034800Y072350*
X034700Y072250*
X034600*
X034700Y072150*
X034600Y072050*
X034700*
X034800Y071950*
X042850D02*
X042950Y072050D01*
X043050*
X042950Y072150*
X043050Y072250*
X042950*
X042850Y072350*
X042750Y072250*
X042650*
X042750Y072150*
X042650Y072050*
X042750*
X042850Y071950*
X040400Y070400D02*
X040500Y070500D01*
X040600*
X040500Y070600*
X040600Y070700*
X040500*
X040400Y070800*
X040300Y070700*
X040200*
X040300Y070600*
X040200Y070500*
X040300*
X040400Y070400*
X039400Y071300D02*
X039500Y071400D01*
X039600*
X039500Y071500*
X039600Y071600*
X039500*
X039400Y071700*
X039300Y071600*
X039200*
X039300Y071500*
X039200Y071400*
X039300*
X039400Y071300*
X040400Y073600D02*
X040500Y073700D01*
X040600*
X040500Y073800*
X040600Y073900*
X040500*
X040400Y074000*
X040300Y073900*
X040200*
X040300Y073800*
X040200Y073700*
X040300*
X040400Y073600*
X041150D02*
X041250Y073700D01*
X041350*
X041250Y073800*
X041350Y073900*
X041250*
X041150Y074000*
X041050Y073900*
X040950*
X041050Y073800*
X040950Y073700*
X041050*
X041150Y073600*
X050750Y072050D02*
X050850Y072150D01*
X050950*
X050850Y072250*
X050950Y072350*
X050850*
X050750Y072450*
X050650Y072350*
X050550*
X050650Y072250*
X050550Y072150*
X050650*
X050750Y072050*
X049050Y073650D02*
X049150Y073750D01*
X049250*
X049150Y073850*
X049250Y073950*
X049150*
X049050Y074050*
X048950Y073950*
X048850*
X048950Y073850*
X048850Y073750*
X048950*
X049050Y073650*
X048300D02*
X048400Y073750D01*
X048500*
X048400Y073850*
X048500Y073950*
X048400*
X048300Y074050*
X048200Y073950*
X048100*
X048200Y073850*
X048100Y073750*
X048200*
X048300Y073650*
X048200Y070450D02*
X048300Y070550D01*
X048400*
X048300Y070650*
X048400Y070750*
X048300*
X048200Y070850*
X048100Y070750*
X048000*
X048100Y070650*
X048000Y070550*
X048100*
X048200Y070450*
X047100Y071300D02*
X047200Y071400D01*
X047300*
X047200Y071500*
X047300Y071600*
X047200*
X047100Y071700*
X047000Y071600*
X046900*
X047000Y071500*
X046900Y071400*
X047000*
X047100Y071300*
X050450Y075800D02*
X050550Y075900D01*
X050650*
X050550Y076000*
X050650Y076100*
X050550*
X050450Y076200*
X050350Y076100*
X050250*
X050350Y076000*
X050250Y075900*
X050350*
X050450Y075800*
X049500Y079550D02*
X049600Y079650D01*
X049700*
X049600Y079750*
X049700Y079850*
X049600*
X049500Y079950*
X049400Y079850*
X049300*
X049400Y079750*
X049300Y079650*
X049400*
X049500Y079550*
X048850D02*
X048950Y079650D01*
X049050*
X048950Y079750*
X049050Y079850*
X048950*
X048850Y079950*
X048750Y079850*
X048650*
X048750Y079750*
X048650Y079650*
X048750*
X048850Y079550*
X047200Y081200D02*
X047300Y081300D01*
X047400*
X047300Y081400*
X047400Y081500*
X047300*
X047200Y081600*
X047100Y081500*
X047000*
X047100Y081400*
X047000Y081300*
X047100*
X047200Y081200*
X047500Y077350D02*
X047600Y077450D01*
X047700*
X047600Y077550*
X047700Y077650*
X047600*
X047500Y077750*
X047400Y077650*
X047300*
X047400Y077550*
X047300Y077450*
X047400*
X047500Y077350*
X050800Y081750D02*
X050900Y081850D01*
X051000*
X050900Y081950*
X051000Y082050*
X050900*
X050800Y082150*
X050700Y082050*
X050600*
X050700Y081950*
X050600Y081850*
X050700*
X050800Y081750*
X049700Y082700D02*
X049800Y082800D01*
X049900*
X049800Y082900*
X049900Y083000*
X049800*
X049700Y083100*
X049600Y083000*
X049500*
X049600Y082900*
X049500Y082800*
X049600*
X049700Y082700*
X041800Y079500D02*
X041900Y079600D01*
X042000*
X041900Y079700*
X042000Y079800*
X041900*
X041800Y079900*
X041700Y079800*
X041600*
X041700Y079700*
X041600Y079600*
X041700*
X041800Y079500*
X041100D02*
X041200Y079600D01*
X041300*
X041200Y079700*
X041300Y079800*
X041200*
X041100Y079900*
X041000Y079800*
X040900*
X041000Y079700*
X040900Y079600*
X041000*
X041100Y079500*
X039450Y081100D02*
X039550Y081200D01*
X039650*
X039550Y081300*
X039650Y081400*
X039550*
X039450Y081500*
X039350Y081400*
X039250*
X039350Y081300*
X039250Y081200*
X039350*
X039450Y081100*
X039700Y077350D02*
X039800Y077450D01*
X039900*
X039800Y077550*
X039900Y077650*
X039800*
X039700Y077750*
X039600Y077650*
X039500*
X039600Y077550*
X039500Y077450*
X039600*
X039700Y077350*
X041950Y082750D02*
X042050Y082850D01*
X042150*
X042050Y082950*
X042150Y083050*
X042050*
X041950Y083150*
X041850Y083050*
X041750*
X041850Y082950*
X041750Y082850*
X041850*
X041950Y082750*
X043100Y081800D02*
X043200Y081900D01*
X043300*
X043200Y082000*
X043300Y082100*
X043200*
X043100Y082200*
X043000Y082100*
X042900*
X043000Y082000*
X042900Y081900*
X043000*
X043100Y081800*
X031750Y081100D02*
X031850Y081200D01*
X031950*
X031850Y081300*
X031950Y081400*
X031850*
X031750Y081500*
X031650Y081400*
X031550*
X031650Y081300*
X031550Y081200*
X031650*
X031750Y081100*
X033450Y079500D02*
X033550Y079600D01*
X033650*
X033550Y079700*
X033650Y079800*
X033550*
X033450Y079900*
X033350Y079800*
X033250*
X033350Y079700*
X033250Y079600*
X033350*
X033450Y079500*
X033900Y082800D02*
X034000Y082900D01*
X034100*
X034000Y083000*
X034100Y083100*
X034000*
X033900Y083200*
X033800Y083100*
X033700*
X033800Y083000*
X033700Y082900*
X033800*
X033900Y082800*
X034950Y081650D02*
X035050Y081750D01*
X035150*
X035050Y081850*
X035150Y081950*
X035050*
X034950Y082050*
X034850Y081950*
X034750*
X034850Y081850*
X034750Y081750*
X034850*
X034950Y081650*
X034100Y079500D02*
X034200Y079600D01*
X034300*
X034200Y079700*
X034300Y079800*
X034200*
X034100Y079900*
X034000Y079800*
X033900*
X034000Y079700*
X033900Y079600*
X034000*
X034100Y079500*
X018950Y075650D02*
X019050Y075750D01*
X019150*
X019050Y075850*
X019150Y075950*
X019050*
X018950Y076050*
X018850Y075950*
X018750*
X018850Y075850*
X018750Y075750*
X018850*
X018950Y075650*
X017500Y073600D02*
X017600Y073700D01*
X017700*
X017600Y073800*
X017700Y073900*
X017600*
X017500Y074000*
X017400Y073900*
X017300*
X017400Y073800*
X017300Y073700*
X017400*
X017500Y073600*
X016750D02*
X016850Y073700D01*
X016950*
X016850Y073800*
X016950Y073900*
X016850*
X016750Y074000*
X016650Y073900*
X016550*
X016650Y073800*
X016550Y073700*
X016650*
X016750Y073600*
X019150Y071900D02*
X019250Y072000D01*
X019350*
X019250Y072100*
X019350Y072200*
X019250*
X019150Y072300*
X019050Y072200*
X018950*
X019050Y072100*
X018950Y072000*
X019050*
X019150Y071900*
X015600Y071200D02*
X015700Y071300D01*
X015800*
X015700Y071400*
X015800Y071500*
X015700*
X015600Y071600*
X015500Y071500*
X015400*
X015500Y071400*
X015400Y071300*
X015500*
X015600Y071200*
X016700Y070350D02*
X016800Y070450D01*
X016900*
X016800Y070550*
X016900Y070650*
X016800*
X016700Y070750*
X016600Y070650*
X016500*
X016600Y070550*
X016500Y070450*
X016600*
X016700Y070350*
X042550Y075800D02*
X042650Y075900D01*
X042750*
X042650Y076000*
X042750Y076100*
X042650*
X042550Y076200*
X042450Y076100*
X042350*
X042450Y076000*
X042350Y075900*
X042450*
X042550Y075800*
X031750Y077400D02*
X031850Y077500D01*
X031950*
X031850Y077600*
X031950Y077700*
X031850*
X031750Y077800*
X031650Y077700*
X031550*
X031650Y077600*
X031550Y077500*
X031650*
X031750Y077400*
X026100Y084350D02*
X026200Y084450D01*
X026300*
X026200Y084550*
X026300Y084650*
X026200*
X026100Y084750*
X026000Y084650*
X025900*
X026000Y084550*
X025900Y084450*
X026000*
X026100Y084350*
X046300Y069300D02*
X046400Y069400D01*
X046500*
X046400Y069500*
X046500Y069600*
X046400*
X046300Y069700*
X046200Y069600*
X046100*
X046200Y069500*
X046100Y069400*
X046200*
X046300Y069300*
X051600Y083550D02*
X051700Y083650D01*
X051800*
X051700Y083750*
X051800Y083850*
X051700*
X051600Y083950*
X051500Y083850*
X051400*
X051500Y083750*
X051400Y083650*
X051500*
X051600Y083550*
X043800Y084400D02*
X043900Y084500D01*
X044000*
X043900Y084600*
X044000Y084700*
X043900*
X043800Y084800*
X043700Y084700*
X043600*
X043700Y084600*
X043600Y084500*
X043700*
X043800Y084400*
X035850Y084350D02*
X035950Y084450D01*
X036050*
X035950Y084550*
X036050Y084650*
X035950*
X035850Y084750*
X035750Y084650*
X035650*
X035750Y084550*
X035650Y084450*
X035750*
X035850Y084350*
X038550Y069250D02*
X038650Y069350D01*
X038750*
X038650Y069450*
X038750Y069550*
X038650*
X038550Y069650*
X038450Y069550*
X038350*
X038450Y069450*
X038350Y069350*
X038450*
X038550Y069250*
X030600D02*
X030700Y069350D01*
X030800*
X030700Y069450*
X030800Y069550*
X030700*
X030600Y069650*
X030500Y069550*
X030400*
X030500Y069450*
X030400Y069350*
X030500*
X030600Y069250*
X022650D02*
X022750Y069350D01*
X022850*
X022750Y069450*
X022850Y069550*
X022750*
X022650Y069650*
X022550Y069550*
X022450*
X022550Y069450*
X022450Y069350*
X022550*
X022650Y069250*
X014750D02*
X014850Y069350D01*
X014950*
X014850Y069450*
X014950Y069550*
X014850*
X014750Y069650*
X014650Y069550*
X014550*
X014650Y069450*
X014550Y069350*
X014650*
X014750Y069250*
X042920Y077774D02*
X043020Y077874D01*
X043120*
X043020Y077974*
X043120Y078074*
X043020*
X042920Y078174*
X042820Y078074*
X042720*
X042820Y077974*
X042720Y077874*
X042820*
X042920Y077774*
X047200Y075400D02*
X047300Y075500D01*
X047400*
X047300Y075600*
X047400Y075700*
X047300*
X047200Y075800*
X047100Y075700*
X047000*
X047100Y075600*
X047000Y075500*
X047100*
X047200Y075400*
G54D53*
X015434Y079000D02*
D01*
X015433Y079013*
X015432Y079027*
X015429Y079041*
X015426Y079055*
X015421Y079068*
X015416Y079081*
X015410Y079093*
X015403Y079105*
X015395Y079117*
X015387Y079128*
X015377Y079138*
X015367Y079148*
X015357Y079157*
X015345Y079165*
X015334Y079173*
X015321Y079179*
X015308Y079185*
X015295Y079190*
X015282Y079194*
X015268Y079196*
X015254Y079198*
X015240Y079199*
X015227*
X015213Y079198*
X015199Y079196*
X015185Y079194*
X015172Y079190*
X015159Y079185*
X015146Y079179*
X015134Y079173*
X015122Y079165*
X015110Y079157*
X015100Y079148*
X015090Y079138*
X015080Y079128*
X015072Y079117*
X015064Y079105*
X015057Y079093*
X015051Y079081*
X015046Y079068*
X015041Y079055*
X015038Y079041*
X015035Y079027*
X015034Y079013*
X015034Y079000*
X015034Y078986*
X015035Y078972*
X015038Y078958*
X015041Y078944*
X015046Y078931*
X015051Y078918*
X015057Y078906*
X015064Y078894*
X015072Y078882*
X015080Y078871*
X015090Y078861*
X015100Y078851*
X015110Y078842*
X015122Y078834*
X015134Y078826*
X015146Y078820*
X015159Y078814*
X015172Y078809*
X015185Y078805*
X015199Y078803*
X015213Y078801*
X015227Y078800*
X015240*
X015254Y078801*
X015268Y078803*
X015282Y078805*
X015295Y078809*
X015308Y078814*
X015321Y078820*
X015334Y078826*
X015345Y078834*
X015357Y078842*
X015367Y078851*
X015377Y078861*
X015387Y078871*
X015395Y078882*
X015403Y078894*
X015410Y078906*
X015416Y078918*
X015421Y078931*
X015426Y078944*
X015429Y078958*
X015432Y078972*
X015433Y078986*
X015434Y079000*
X013466D02*
D01*
X013465Y079013*
X013464Y079027*
X013461Y079041*
X013458Y079055*
X013453Y079068*
X013448Y079081*
X013442Y079093*
X013435Y079105*
X013427Y079117*
X013419Y079128*
X013409Y079138*
X013399Y079148*
X013389Y079157*
X013377Y079165*
X013366Y079173*
X013353Y079179*
X013340Y079185*
X013327Y079190*
X013314Y079194*
X013300Y079196*
X013286Y079198*
X013272Y079199*
X013259*
X013245Y079198*
X013231Y079196*
X013217Y079194*
X013204Y079190*
X013191Y079185*
X013178Y079179*
X013166Y079173*
X013154Y079165*
X013142Y079157*
X013132Y079148*
X013122Y079138*
X013112Y079128*
X013104Y079117*
X013096Y079105*
X013089Y079093*
X013083Y079081*
X013078Y079068*
X013073Y079055*
X013070Y079041*
X013067Y079027*
X013066Y079013*
X013066Y079000*
X013066Y078986*
X013067Y078972*
X013070Y078958*
X013073Y078944*
X013078Y078931*
X013083Y078918*
X013089Y078906*
X013096Y078894*
X013104Y078882*
X013112Y078871*
X013122Y078861*
X013132Y078851*
X013142Y078842*
X013154Y078834*
X013166Y078826*
X013178Y078820*
X013191Y078814*
X013204Y078809*
X013217Y078805*
X013231Y078803*
X013245Y078801*
X013259Y078800*
X013272*
X013286Y078801*
X013300Y078803*
X013314Y078805*
X013327Y078809*
X013340Y078814*
X013353Y078820*
X013366Y078826*
X013377Y078834*
X013389Y078842*
X013399Y078851*
X013409Y078861*
X013419Y078871*
X013427Y078882*
X013435Y078894*
X013442Y078906*
X013448Y078918*
X013453Y078931*
X013458Y078944*
X013461Y078958*
X013464Y078972*
X013465Y078986*
X013466Y079000*
X015434Y083150D02*
D01*
X015433Y083163*
X015432Y083177*
X015429Y083191*
X015426Y083205*
X015421Y083218*
X015416Y083231*
X015410Y083243*
X015403Y083255*
X015395Y083267*
X015387Y083278*
X015377Y083288*
X015367Y083298*
X015357Y083307*
X015345Y083315*
X015334Y083323*
X015321Y083329*
X015308Y083335*
X015295Y083340*
X015282Y083344*
X015268Y083346*
X015254Y083348*
X015240Y083349*
X015227*
X015213Y083348*
X015199Y083346*
X015185Y083344*
X015172Y083340*
X015159Y083335*
X015146Y083329*
X015134Y083323*
X015122Y083315*
X015110Y083307*
X015100Y083298*
X015090Y083288*
X015080Y083278*
X015072Y083267*
X015064Y083255*
X015057Y083243*
X015051Y083231*
X015046Y083218*
X015041Y083205*
X015038Y083191*
X015035Y083177*
X015034Y083163*
X015034Y083150*
X015034Y083136*
X015035Y083122*
X015038Y083108*
X015041Y083094*
X015046Y083081*
X015051Y083068*
X015057Y083056*
X015064Y083044*
X015072Y083032*
X015080Y083021*
X015090Y083011*
X015100Y083001*
X015110Y082992*
X015122Y082984*
X015134Y082976*
X015146Y082970*
X015159Y082964*
X015172Y082959*
X015185Y082955*
X015199Y082953*
X015213Y082951*
X015227Y082950*
X015240*
X015254Y082951*
X015268Y082953*
X015282Y082955*
X015295Y082959*
X015308Y082964*
X015321Y082970*
X015334Y082976*
X015345Y082984*
X015357Y082992*
X015367Y083001*
X015377Y083011*
X015387Y083021*
X015395Y083032*
X015403Y083044*
X015410Y083056*
X015416Y083068*
X015421Y083081*
X015426Y083094*
X015429Y083108*
X015432Y083122*
X015433Y083136*
X015434Y083150*
X013466D02*
D01*
X013465Y083163*
X013464Y083177*
X013461Y083191*
X013458Y083205*
X013453Y083218*
X013448Y083231*
X013442Y083243*
X013435Y083255*
X013427Y083267*
X013419Y083278*
X013409Y083288*
X013399Y083298*
X013389Y083307*
X013377Y083315*
X013366Y083323*
X013353Y083329*
X013340Y083335*
X013327Y083340*
X013314Y083344*
X013300Y083346*
X013286Y083348*
X013272Y083349*
X013259*
X013245Y083348*
X013231Y083346*
X013217Y083344*
X013204Y083340*
X013191Y083335*
X013178Y083329*
X013166Y083323*
X013154Y083315*
X013142Y083307*
X013132Y083298*
X013122Y083288*
X013112Y083278*
X013104Y083267*
X013096Y083255*
X013089Y083243*
X013083Y083231*
X013078Y083218*
X013073Y083205*
X013070Y083191*
X013067Y083177*
X013066Y083163*
X013066Y083150*
X013066Y083136*
X013067Y083122*
X013070Y083108*
X013073Y083094*
X013078Y083081*
X013083Y083068*
X013089Y083056*
X013096Y083044*
X013104Y083032*
X013112Y083021*
X013122Y083011*
X013132Y083001*
X013142Y082992*
X013154Y082984*
X013166Y082976*
X013178Y082970*
X013191Y082964*
X013204Y082959*
X013217Y082955*
X013231Y082953*
X013245Y082951*
X013259Y082950*
X013272*
X013286Y082951*
X013300Y082953*
X013314Y082955*
X013327Y082959*
X013340Y082964*
X013353Y082970*
X013366Y082976*
X013377Y082984*
X013389Y082992*
X013399Y083001*
X013409Y083011*
X013419Y083021*
X013427Y083032*
X013435Y083044*
X013442Y083056*
X013448Y083068*
X013453Y083081*
X013458Y083094*
X013461Y083108*
X013464Y083122*
X013465Y083136*
X013466Y083150*
X029500Y088085D02*
D01*
X029499Y088098*
X029498Y088112*
X029495Y088126*
X029492Y088140*
X029487Y088153*
X029482Y088166*
X029476Y088178*
X029469Y088190*
X029461Y088202*
X029453Y088213*
X029443Y088223*
X029433Y088233*
X029423Y088242*
X029411Y088250*
X029400Y088258*
X029387Y088264*
X029374Y088270*
X029361Y088275*
X029348Y088279*
X029334Y088281*
X029320Y088283*
X029306Y088284*
X029293*
X029279Y088283*
X029265Y088281*
X029251Y088279*
X029238Y088275*
X029225Y088270*
X029212Y088264*
X029200Y088258*
X029188Y088250*
X029176Y088242*
X029166Y088233*
X029156Y088223*
X029146Y088213*
X029138Y088202*
X029130Y088190*
X029123Y088178*
X029117Y088166*
X029112Y088153*
X029107Y088140*
X029104Y088126*
X029101Y088112*
X029100Y088098*
X029100Y088085*
X029100Y088071*
X029101Y088057*
X029104Y088043*
X029107Y088029*
X029112Y088016*
X029117Y088003*
X029123Y087991*
X029130Y087979*
X029138Y087967*
X029146Y087956*
X029156Y087946*
X029166Y087936*
X029176Y087927*
X029188Y087919*
X029200Y087911*
X029212Y087905*
X029225Y087899*
X029238Y087894*
X029251Y087890*
X029265Y087888*
X029279Y087886*
X029293Y087885*
X029306*
X029320Y087886*
X029334Y087888*
X029348Y087890*
X029361Y087894*
X029374Y087899*
X029387Y087905*
X029400Y087911*
X029411Y087919*
X029423Y087927*
X029433Y087936*
X029443Y087946*
X029453Y087956*
X029461Y087967*
X029469Y087979*
X029476Y087991*
X029482Y088003*
X029487Y088016*
X029492Y088029*
X029495Y088043*
X029498Y088057*
X029499Y088071*
X029500Y088085*
Y087085D02*
D01*
X029499Y087098*
X029498Y087112*
X029495Y087126*
X029492Y087140*
X029487Y087153*
X029482Y087166*
X029476Y087178*
X029469Y087190*
X029461Y087202*
X029453Y087213*
X029443Y087223*
X029433Y087233*
X029423Y087242*
X029411Y087250*
X029400Y087258*
X029387Y087264*
X029374Y087270*
X029361Y087275*
X029348Y087279*
X029334Y087281*
X029320Y087283*
X029306Y087284*
X029293*
X029279Y087283*
X029265Y087281*
X029251Y087279*
X029238Y087275*
X029225Y087270*
X029212Y087264*
X029200Y087258*
X029188Y087250*
X029176Y087242*
X029166Y087233*
X029156Y087223*
X029146Y087213*
X029138Y087202*
X029130Y087190*
X029123Y087178*
X029117Y087166*
X029112Y087153*
X029107Y087140*
X029104Y087126*
X029101Y087112*
X029100Y087098*
X029100Y087085*
X029100Y087071*
X029101Y087057*
X029104Y087043*
X029107Y087029*
X029112Y087016*
X029117Y087003*
X029123Y086991*
X029130Y086979*
X029138Y086967*
X029146Y086956*
X029156Y086946*
X029166Y086936*
X029176Y086927*
X029188Y086919*
X029200Y086911*
X029212Y086905*
X029225Y086899*
X029238Y086894*
X029251Y086890*
X029265Y086888*
X029279Y086886*
X029293Y086885*
X029306*
X029320Y086886*
X029334Y086888*
X029348Y086890*
X029361Y086894*
X029374Y086899*
X029387Y086905*
X029400Y086911*
X029411Y086919*
X029423Y086927*
X029433Y086936*
X029443Y086946*
X029453Y086956*
X029461Y086967*
X029469Y086979*
X029476Y086991*
X029482Y087003*
X029487Y087016*
X029492Y087029*
X029495Y087043*
X029498Y087057*
X029499Y087071*
X029500Y087085*
X027900Y087100D02*
D01*
X027899Y087113*
X027898Y087127*
X027895Y087141*
X027892Y087155*
X027887Y087168*
X027882Y087181*
X027876Y087193*
X027869Y087205*
X027861Y087217*
X027853Y087228*
X027843Y087238*
X027833Y087248*
X027823Y087257*
X027811Y087265*
X027800Y087273*
X027787Y087279*
X027774Y087285*
X027761Y087290*
X027748Y087294*
X027734Y087296*
X027720Y087298*
X027706Y087299*
X027693*
X027679Y087298*
X027665Y087296*
X027651Y087294*
X027638Y087290*
X027625Y087285*
X027612Y087279*
X027600Y087273*
X027588Y087265*
X027576Y087257*
X027566Y087248*
X027556Y087238*
X027546Y087228*
X027538Y087217*
X027530Y087205*
X027523Y087193*
X027517Y087181*
X027512Y087168*
X027507Y087155*
X027504Y087141*
X027501Y087127*
X027500Y087113*
X027500Y087100*
X027500Y087086*
X027501Y087072*
X027504Y087058*
X027507Y087044*
X027512Y087031*
X027517Y087018*
X027523Y087006*
X027530Y086994*
X027538Y086982*
X027546Y086971*
X027556Y086961*
X027566Y086951*
X027576Y086942*
X027588Y086934*
X027600Y086926*
X027612Y086920*
X027625Y086914*
X027638Y086909*
X027651Y086905*
X027665Y086903*
X027679Y086901*
X027693Y086900*
X027706*
X027720Y086901*
X027734Y086903*
X027748Y086905*
X027761Y086909*
X027774Y086914*
X027787Y086920*
X027800Y086926*
X027811Y086934*
X027823Y086942*
X027833Y086951*
X027843Y086961*
X027853Y086971*
X027861Y086982*
X027869Y086994*
X027876Y087006*
X027882Y087018*
X027887Y087031*
X027892Y087044*
X027895Y087058*
X027898Y087072*
X027899Y087086*
X027900Y087100*
Y088100D02*
D01*
X027899Y088113*
X027898Y088127*
X027895Y088141*
X027892Y088155*
X027887Y088168*
X027882Y088181*
X027876Y088193*
X027869Y088205*
X027861Y088217*
X027853Y088228*
X027843Y088238*
X027833Y088248*
X027823Y088257*
X027811Y088265*
X027800Y088273*
X027787Y088279*
X027774Y088285*
X027761Y088290*
X027748Y088294*
X027734Y088296*
X027720Y088298*
X027706Y088299*
X027693*
X027679Y088298*
X027665Y088296*
X027651Y088294*
X027638Y088290*
X027625Y088285*
X027612Y088279*
X027600Y088273*
X027588Y088265*
X027576Y088257*
X027566Y088248*
X027556Y088238*
X027546Y088228*
X027538Y088217*
X027530Y088205*
X027523Y088193*
X027517Y088181*
X027512Y088168*
X027507Y088155*
X027504Y088141*
X027501Y088127*
X027500Y088113*
X027500Y088100*
X027500Y088086*
X027501Y088072*
X027504Y088058*
X027507Y088044*
X027512Y088031*
X027517Y088018*
X027523Y088006*
X027530Y087994*
X027538Y087982*
X027546Y087971*
X027556Y087961*
X027566Y087951*
X027576Y087942*
X027588Y087934*
X027600Y087926*
X027612Y087920*
X027625Y087914*
X027638Y087909*
X027651Y087905*
X027665Y087903*
X027679Y087901*
X027693Y087900*
X027706*
X027720Y087901*
X027734Y087903*
X027748Y087905*
X027761Y087909*
X027774Y087914*
X027787Y087920*
X027800Y087926*
X027811Y087934*
X027823Y087942*
X027833Y087951*
X027843Y087961*
X027853Y087971*
X027861Y087982*
X027869Y087994*
X027876Y088006*
X027882Y088018*
X027887Y088031*
X027892Y088044*
X027895Y088058*
X027898Y088072*
X027899Y088086*
X027900Y088100*
X026300Y087100D02*
D01*
X026299Y087113*
X026298Y087127*
X026295Y087141*
X026292Y087155*
X026287Y087168*
X026282Y087181*
X026276Y087193*
X026269Y087205*
X026261Y087217*
X026253Y087228*
X026243Y087238*
X026233Y087248*
X026223Y087257*
X026211Y087265*
X026200Y087273*
X026187Y087279*
X026174Y087285*
X026161Y087290*
X026148Y087294*
X026134Y087296*
X026120Y087298*
X026106Y087299*
X026093*
X026079Y087298*
X026065Y087296*
X026051Y087294*
X026038Y087290*
X026025Y087285*
X026012Y087279*
X026000Y087273*
X025988Y087265*
X025976Y087257*
X025966Y087248*
X025956Y087238*
X025946Y087228*
X025938Y087217*
X025930Y087205*
X025923Y087193*
X025917Y087181*
X025912Y087168*
X025907Y087155*
X025904Y087141*
X025901Y087127*
X025900Y087113*
X025900Y087100*
X025900Y087086*
X025901Y087072*
X025904Y087058*
X025907Y087044*
X025912Y087031*
X025917Y087018*
X025923Y087006*
X025930Y086994*
X025938Y086982*
X025946Y086971*
X025956Y086961*
X025966Y086951*
X025976Y086942*
X025988Y086934*
X026000Y086926*
X026012Y086920*
X026025Y086914*
X026038Y086909*
X026051Y086905*
X026065Y086903*
X026079Y086901*
X026093Y086900*
X026106*
X026120Y086901*
X026134Y086903*
X026148Y086905*
X026161Y086909*
X026174Y086914*
X026187Y086920*
X026200Y086926*
X026211Y086934*
X026223Y086942*
X026233Y086951*
X026243Y086961*
X026253Y086971*
X026261Y086982*
X026269Y086994*
X026276Y087006*
X026282Y087018*
X026287Y087031*
X026292Y087044*
X026295Y087058*
X026298Y087072*
X026299Y087086*
X026300Y087100*
Y088100D02*
D01*
X026299Y088113*
X026298Y088127*
X026295Y088141*
X026292Y088155*
X026287Y088168*
X026282Y088181*
X026276Y088193*
X026269Y088205*
X026261Y088217*
X026253Y088228*
X026243Y088238*
X026233Y088248*
X026223Y088257*
X026211Y088265*
X026200Y088273*
X026187Y088279*
X026174Y088285*
X026161Y088290*
X026148Y088294*
X026134Y088296*
X026120Y088298*
X026106Y088299*
X026093*
X026079Y088298*
X026065Y088296*
X026051Y088294*
X026038Y088290*
X026025Y088285*
X026012Y088279*
X026000Y088273*
X025988Y088265*
X025976Y088257*
X025966Y088248*
X025956Y088238*
X025946Y088228*
X025938Y088217*
X025930Y088205*
X025923Y088193*
X025917Y088181*
X025912Y088168*
X025907Y088155*
X025904Y088141*
X025901Y088127*
X025900Y088113*
X025900Y088100*
X025900Y088086*
X025901Y088072*
X025904Y088058*
X025907Y088044*
X025912Y088031*
X025917Y088018*
X025923Y088006*
X025930Y087994*
X025938Y087982*
X025946Y087971*
X025956Y087961*
X025966Y087951*
X025976Y087942*
X025988Y087934*
X026000Y087926*
X026012Y087920*
X026025Y087914*
X026038Y087909*
X026051Y087905*
X026065Y087903*
X026079Y087901*
X026093Y087900*
X026106*
X026120Y087901*
X026134Y087903*
X026148Y087905*
X026161Y087909*
X026174Y087914*
X026187Y087920*
X026200Y087926*
X026211Y087934*
X026223Y087942*
X026233Y087951*
X026243Y087961*
X026253Y087971*
X026261Y087982*
X026269Y087994*
X026276Y088006*
X026282Y088018*
X026287Y088031*
X026292Y088044*
X026295Y088058*
X026298Y088072*
X026299Y088086*
X026300Y088100*
M02*