%FSDAX24Y24*%
%MOIN*%
%SFA1B1*%

%IPPOS*%
%ADD10C,0.010000*%
%ADD51C,0.003900*%
%LNde-220124-1*%
%LPD*%
G54D10*
X012150Y088750D02*
X053100D01*
Y064900D02*
Y088750D01*
X012150Y064900D02*
X053100D01*
X012150D02*
Y088750D01*
G54D51*
X021929Y080167D02*
D01*
X021928Y080180*
X021927Y080194*
X021924Y080207*
X021921Y080221*
X021917Y080234*
X021911Y080247*
X021905Y080259*
X021899Y080271*
X021891Y080282*
X021882Y080293*
X021873Y080303*
X021863Y080313*
X021853Y080322*
X021842Y080330*
X021830Y080337*
X021818Y080344*
X021805Y080349*
X021792Y080354*
X021779Y080358*
X021766Y080361*
X021752Y080362*
X021738Y080363*
X021725*
X021711Y080362*
X021697Y080361*
X021684Y080358*
X021671Y080354*
X021658Y080349*
X021645Y080344*
X021633Y080337*
X021621Y080330*
X021610Y080322*
X021600Y080313*
X021590Y080303*
X021581Y080293*
X021572Y080282*
X021564Y080271*
X021558Y080259*
X021552Y080247*
X021546Y080234*
X021542Y080221*
X021539Y080207*
X021536Y080194*
X021535Y080180*
X021535Y080167*
X021535Y080153*
X021536Y080139*
X021539Y080126*
X021542Y080112*
X021546Y080099*
X021552Y080086*
X021558Y080074*
X021564Y080062*
X021572Y080051*
X021581Y080040*
X021590Y080030*
X021600Y080020*
X021610Y080011*
X021621Y080003*
X021633Y079996*
X021645Y079989*
X021658Y079984*
X021671Y079979*
X021684Y079975*
X021697Y079972*
X021711Y079971*
X021725Y079970*
X021738*
X021752Y079971*
X021766Y079972*
X021779Y079975*
X021792Y079979*
X021805Y079984*
X021818Y079989*
X021830Y079996*
X021842Y080003*
X021853Y080011*
X021863Y080020*
X021873Y080030*
X021882Y080040*
X021891Y080051*
X021899Y080062*
X021905Y080074*
X021911Y080086*
X021917Y080099*
X021921Y080112*
X021924Y080126*
X021927Y080139*
X021928Y080153*
X021929Y080167*
X022617Y083267D02*
D01*
X022616Y083280*
X022615Y083294*
X022612Y083307*
X022609Y083321*
X022605Y083334*
X022599Y083347*
X022593Y083359*
X022587Y083371*
X022579Y083382*
X022570Y083393*
X022561Y083403*
X022551Y083413*
X022541Y083422*
X022530Y083430*
X022518Y083437*
X022506Y083444*
X022493Y083449*
X022480Y083454*
X022467Y083458*
X022454Y083461*
X022440Y083462*
X022426Y083463*
X022413*
X022399Y083462*
X022385Y083461*
X022372Y083458*
X022359Y083454*
X022346Y083449*
X022333Y083444*
X022321Y083437*
X022309Y083430*
X022298Y083422*
X022288Y083413*
X022278Y083403*
X022269Y083393*
X022260Y083382*
X022252Y083371*
X022246Y083359*
X022240Y083347*
X022234Y083334*
X022230Y083321*
X022227Y083307*
X022224Y083294*
X022223Y083280*
X022223Y083267*
X022223Y083253*
X022224Y083239*
X022227Y083226*
X022230Y083212*
X022234Y083199*
X022240Y083186*
X022246Y083174*
X022252Y083162*
X022260Y083151*
X022269Y083140*
X022278Y083130*
X022288Y083120*
X022298Y083111*
X022309Y083103*
X022321Y083096*
X022333Y083089*
X022346Y083084*
X022359Y083079*
X022372Y083075*
X022385Y083072*
X022399Y083071*
X022413Y083070*
X022426*
X022440Y083071*
X022454Y083072*
X022467Y083075*
X022480Y083079*
X022493Y083084*
X022506Y083089*
X022518Y083096*
X022530Y083103*
X022541Y083111*
X022551Y083120*
X022561Y083130*
X022570Y083140*
X022579Y083151*
X022587Y083162*
X022593Y083174*
X022599Y083186*
X022605Y083199*
X022609Y083212*
X022612Y083226*
X022615Y083239*
X022616Y083253*
X022617Y083267*
X026965Y074383D02*
D01*
X026964Y074396*
X026963Y074410*
X026960Y074423*
X026957Y074437*
X026953Y074450*
X026947Y074463*
X026941Y074475*
X026935Y074487*
X026927Y074498*
X026918Y074509*
X026909Y074519*
X026899Y074529*
X026889Y074538*
X026878Y074546*
X026866Y074553*
X026854Y074560*
X026841Y074565*
X026828Y074570*
X026815Y074574*
X026802Y074577*
X026788Y074578*
X026774Y074579*
X026761*
X026747Y074578*
X026733Y074577*
X026720Y074574*
X026707Y074570*
X026694Y074565*
X026681Y074560*
X026669Y074553*
X026657Y074546*
X026646Y074538*
X026636Y074529*
X026626Y074519*
X026617Y074509*
X026608Y074498*
X026600Y074487*
X026594Y074475*
X026588Y074463*
X026582Y074450*
X026578Y074437*
X026575Y074423*
X026572Y074410*
X026571Y074396*
X026571Y074383*
X026571Y074369*
X026572Y074355*
X026575Y074342*
X026578Y074328*
X026582Y074315*
X026588Y074302*
X026594Y074290*
X026600Y074278*
X026608Y074267*
X026617Y074256*
X026626Y074246*
X026636Y074236*
X026646Y074227*
X026657Y074219*
X026669Y074212*
X026681Y074205*
X026694Y074200*
X026707Y074195*
X026720Y074191*
X026733Y074188*
X026747Y074187*
X026761Y074186*
X026774*
X026788Y074187*
X026802Y074188*
X026815Y074191*
X026828Y074195*
X026841Y074200*
X026854Y074205*
X026866Y074212*
X026878Y074219*
X026889Y074227*
X026899Y074236*
X026909Y074246*
X026918Y074256*
X026927Y074267*
X026935Y074278*
X026941Y074290*
X026947Y074302*
X026953Y074315*
X026957Y074328*
X026960Y074342*
X026963Y074355*
X026964Y074369*
X026965Y074383*
X026127Y071283D02*
D01*
X026126Y071296*
X026125Y071310*
X026122Y071323*
X026119Y071337*
X026115Y071350*
X026109Y071363*
X026103Y071375*
X026097Y071387*
X026089Y071398*
X026080Y071409*
X026071Y071419*
X026061Y071429*
X026051Y071438*
X026040Y071446*
X026028Y071453*
X026016Y071460*
X026003Y071465*
X025990Y071470*
X025977Y071474*
X025964Y071477*
X025950Y071478*
X025936Y071479*
X025923*
X025909Y071478*
X025895Y071477*
X025882Y071474*
X025869Y071470*
X025856Y071465*
X025843Y071460*
X025831Y071453*
X025819Y071446*
X025808Y071438*
X025798Y071429*
X025788Y071419*
X025779Y071409*
X025770Y071398*
X025762Y071387*
X025756Y071375*
X025750Y071363*
X025744Y071350*
X025740Y071337*
X025737Y071323*
X025734Y071310*
X025733Y071296*
X025733Y071283*
X025733Y071269*
X025734Y071255*
X025737Y071242*
X025740Y071228*
X025744Y071215*
X025750Y071202*
X025756Y071190*
X025762Y071178*
X025770Y071167*
X025779Y071156*
X025788Y071146*
X025798Y071136*
X025808Y071127*
X025819Y071119*
X025831Y071112*
X025843Y071105*
X025856Y071100*
X025869Y071095*
X025882Y071091*
X025895Y071088*
X025909Y071087*
X025923Y071086*
X025936*
X025950Y071087*
X025964Y071088*
X025977Y071091*
X025990Y071095*
X026003Y071100*
X026016Y071105*
X026028Y071112*
X026040Y071119*
X026051Y071127*
X026061Y071136*
X026071Y071146*
X026080Y071156*
X026089Y071167*
X026097Y071178*
X026103Y071190*
X026109Y071202*
X026115Y071215*
X026119Y071228*
X026122Y071242*
X026125Y071255*
X026126Y071269*
X026127Y071283*
X042715Y074383D02*
D01*
X042714Y074396*
X042713Y074410*
X042710Y074423*
X042707Y074437*
X042703Y074450*
X042697Y074463*
X042691Y074475*
X042685Y074487*
X042677Y074498*
X042668Y074509*
X042659Y074519*
X042649Y074529*
X042639Y074538*
X042628Y074546*
X042616Y074553*
X042604Y074560*
X042591Y074565*
X042578Y074570*
X042565Y074574*
X042552Y074577*
X042538Y074578*
X042524Y074579*
X042511*
X042497Y074578*
X042483Y074577*
X042470Y074574*
X042457Y074570*
X042444Y074565*
X042431Y074560*
X042419Y074553*
X042407Y074546*
X042396Y074538*
X042386Y074529*
X042376Y074519*
X042367Y074509*
X042358Y074498*
X042350Y074487*
X042344Y074475*
X042338Y074463*
X042332Y074450*
X042328Y074437*
X042325Y074423*
X042322Y074410*
X042321Y074396*
X042321Y074383*
X042321Y074369*
X042322Y074355*
X042325Y074342*
X042328Y074328*
X042332Y074315*
X042338Y074302*
X042344Y074290*
X042350Y074278*
X042358Y074267*
X042367Y074256*
X042376Y074246*
X042386Y074236*
X042396Y074227*
X042407Y074219*
X042419Y074212*
X042431Y074205*
X042444Y074200*
X042457Y074195*
X042470Y074191*
X042483Y074188*
X042497Y074187*
X042511Y074186*
X042524*
X042538Y074187*
X042552Y074188*
X042565Y074191*
X042578Y074195*
X042591Y074200*
X042604Y074205*
X042616Y074212*
X042628Y074219*
X042639Y074227*
X042649Y074236*
X042659Y074246*
X042668Y074256*
X042677Y074267*
X042685Y074278*
X042691Y074290*
X042697Y074302*
X042703Y074315*
X042707Y074328*
X042710Y074342*
X042713Y074355*
X042714Y074369*
X042715Y074383*
X034765D02*
D01*
X034764Y074396*
X034763Y074410*
X034760Y074423*
X034757Y074437*
X034753Y074450*
X034747Y074463*
X034741Y074475*
X034735Y074487*
X034727Y074498*
X034718Y074509*
X034709Y074519*
X034699Y074529*
X034689Y074538*
X034678Y074546*
X034666Y074553*
X034654Y074560*
X034641Y074565*
X034628Y074570*
X034615Y074574*
X034602Y074577*
X034588Y074578*
X034574Y074579*
X034561*
X034547Y074578*
X034533Y074577*
X034520Y074574*
X034507Y074570*
X034494Y074565*
X034481Y074560*
X034469Y074553*
X034457Y074546*
X034446Y074538*
X034436Y074529*
X034426Y074519*
X034417Y074509*
X034408Y074498*
X034400Y074487*
X034394Y074475*
X034388Y074463*
X034382Y074450*
X034378Y074437*
X034375Y074423*
X034372Y074410*
X034371Y074396*
X034371Y074383*
X034371Y074369*
X034372Y074355*
X034375Y074342*
X034378Y074328*
X034382Y074315*
X034388Y074302*
X034394Y074290*
X034400Y074278*
X034408Y074267*
X034417Y074256*
X034426Y074246*
X034436Y074236*
X034446Y074227*
X034457Y074219*
X034469Y074212*
X034481Y074205*
X034494Y074200*
X034507Y074195*
X034520Y074191*
X034533Y074188*
X034547Y074187*
X034561Y074186*
X034574*
X034588Y074187*
X034602Y074188*
X034615Y074191*
X034628Y074195*
X034641Y074200*
X034654Y074205*
X034666Y074212*
X034678Y074219*
X034689Y074227*
X034699Y074236*
X034709Y074246*
X034718Y074256*
X034727Y074267*
X034735Y074278*
X034741Y074290*
X034747Y074302*
X034753Y074315*
X034757Y074328*
X034760Y074342*
X034763Y074355*
X034764Y074369*
X034765Y074383*
X034027Y071283D02*
D01*
X034026Y071296*
X034025Y071310*
X034022Y071323*
X034019Y071337*
X034015Y071350*
X034009Y071363*
X034003Y071375*
X033997Y071387*
X033989Y071398*
X033980Y071409*
X033971Y071419*
X033961Y071429*
X033951Y071438*
X033940Y071446*
X033928Y071453*
X033916Y071460*
X033903Y071465*
X033890Y071470*
X033877Y071474*
X033864Y071477*
X033850Y071478*
X033836Y071479*
X033823*
X033809Y071478*
X033795Y071477*
X033782Y071474*
X033769Y071470*
X033756Y071465*
X033743Y071460*
X033731Y071453*
X033719Y071446*
X033708Y071438*
X033698Y071429*
X033688Y071419*
X033679Y071409*
X033670Y071398*
X033662Y071387*
X033656Y071375*
X033650Y071363*
X033644Y071350*
X033640Y071337*
X033637Y071323*
X033634Y071310*
X033633Y071296*
X033633Y071283*
X033633Y071269*
X033634Y071255*
X033637Y071242*
X033640Y071228*
X033644Y071215*
X033650Y071202*
X033656Y071190*
X033662Y071178*
X033670Y071167*
X033679Y071156*
X033688Y071146*
X033698Y071136*
X033708Y071127*
X033719Y071119*
X033731Y071112*
X033743Y071105*
X033756Y071100*
X033769Y071095*
X033782Y071091*
X033795Y071088*
X033809Y071087*
X033823Y071086*
X033836*
X033850Y071087*
X033864Y071088*
X033877Y071091*
X033890Y071095*
X033903Y071100*
X033916Y071105*
X033928Y071112*
X033940Y071119*
X033951Y071127*
X033961Y071136*
X033971Y071146*
X033980Y071156*
X033989Y071167*
X033997Y071178*
X034003Y071190*
X034009Y071202*
X034015Y071215*
X034019Y071228*
X034022Y071242*
X034025Y071255*
X034026Y071269*
X034027Y071283*
X041977D02*
D01*
X041976Y071296*
X041975Y071310*
X041972Y071323*
X041969Y071337*
X041965Y071350*
X041959Y071363*
X041953Y071375*
X041947Y071387*
X041939Y071398*
X041930Y071409*
X041921Y071419*
X041911Y071429*
X041901Y071438*
X041890Y071446*
X041878Y071453*
X041866Y071460*
X041853Y071465*
X041840Y071470*
X041827Y071474*
X041814Y071477*
X041800Y071478*
X041786Y071479*
X041773*
X041759Y071478*
X041745Y071477*
X041732Y071474*
X041719Y071470*
X041706Y071465*
X041693Y071460*
X041681Y071453*
X041669Y071446*
X041658Y071438*
X041648Y071429*
X041638Y071419*
X041629Y071409*
X041620Y071398*
X041612Y071387*
X041606Y071375*
X041600Y071363*
X041594Y071350*
X041590Y071337*
X041587Y071323*
X041584Y071310*
X041583Y071296*
X041583Y071283*
X041583Y071269*
X041584Y071255*
X041587Y071242*
X041590Y071228*
X041594Y071215*
X041600Y071202*
X041606Y071190*
X041612Y071178*
X041620Y071167*
X041629Y071156*
X041638Y071146*
X041648Y071136*
X041658Y071127*
X041669Y071119*
X041681Y071112*
X041693Y071105*
X041706Y071100*
X041719Y071095*
X041732Y071091*
X041745Y071088*
X041759Y071087*
X041773Y071086*
X041786*
X041800Y071087*
X041814Y071088*
X041827Y071091*
X041840Y071095*
X041853Y071100*
X041866Y071105*
X041878Y071112*
X041890Y071119*
X041901Y071127*
X041911Y071136*
X041921Y071146*
X041930Y071156*
X041939Y071167*
X041947Y071178*
X041953Y071190*
X041959Y071202*
X041965Y071215*
X041969Y071228*
X041972Y071242*
X041975Y071255*
X041976Y071269*
X041977Y071283*
X047679Y079162D02*
D01*
X047678Y079175*
X047677Y079189*
X047674Y079202*
X047671Y079216*
X047667Y079229*
X047661Y079242*
X047655Y079254*
X047649Y079266*
X047641Y079277*
X047632Y079288*
X047623Y079298*
X047613Y079308*
X047603Y079317*
X047592Y079325*
X047580Y079332*
X047568Y079339*
X047555Y079344*
X047542Y079349*
X047529Y079353*
X047516Y079356*
X047502Y079357*
X047488Y079358*
X047475*
X047461Y079357*
X047447Y079356*
X047434Y079353*
X047421Y079349*
X047408Y079344*
X047395Y079339*
X047383Y079332*
X047371Y079325*
X047360Y079317*
X047350Y079308*
X047340Y079298*
X047331Y079288*
X047322Y079277*
X047314Y079266*
X047308Y079254*
X047302Y079242*
X047296Y079229*
X047292Y079216*
X047289Y079202*
X047286Y079189*
X047285Y079175*
X047285Y079162*
X047285Y079148*
X047286Y079134*
X047289Y079121*
X047292Y079107*
X047296Y079094*
X047302Y079081*
X047308Y079069*
X047314Y079057*
X047322Y079046*
X047331Y079035*
X047340Y079025*
X047350Y079015*
X047360Y079006*
X047371Y078998*
X047383Y078991*
X047395Y078984*
X047408Y078979*
X047421Y078974*
X047434Y078970*
X047447Y078967*
X047461Y078966*
X047475Y078965*
X047488*
X047502Y078966*
X047516Y078967*
X047529Y078970*
X047542Y078974*
X047555Y078979*
X047568Y078984*
X047580Y078991*
X047592Y078998*
X047603Y079006*
X047613Y079015*
X047623Y079025*
X047632Y079035*
X047641Y079046*
X047649Y079057*
X047655Y079069*
X047661Y079081*
X047667Y079094*
X047671Y079107*
X047674Y079121*
X047677Y079134*
X047678Y079148*
X047679Y079162*
X050615Y074433D02*
D01*
X050614Y074446*
X050613Y074460*
X050610Y074473*
X050607Y074487*
X050603Y074500*
X050597Y074513*
X050591Y074525*
X050585Y074537*
X050577Y074548*
X050568Y074559*
X050559Y074569*
X050549Y074579*
X050539Y074588*
X050528Y074596*
X050516Y074603*
X050504Y074610*
X050491Y074615*
X050478Y074620*
X050465Y074624*
X050452Y074627*
X050438Y074628*
X050424Y074629*
X050411*
X050397Y074628*
X050383Y074627*
X050370Y074624*
X050357Y074620*
X050344Y074615*
X050331Y074610*
X050319Y074603*
X050307Y074596*
X050296Y074588*
X050286Y074579*
X050276Y074569*
X050267Y074559*
X050258Y074548*
X050250Y074537*
X050244Y074525*
X050238Y074513*
X050232Y074500*
X050228Y074487*
X050225Y074473*
X050222Y074460*
X050221Y074446*
X050221Y074433*
X050221Y074419*
X050222Y074405*
X050225Y074392*
X050228Y074378*
X050232Y074365*
X050238Y074352*
X050244Y074340*
X050250Y074328*
X050258Y074317*
X050267Y074306*
X050276Y074296*
X050286Y074286*
X050296Y074277*
X050307Y074269*
X050319Y074262*
X050331Y074255*
X050344Y074250*
X050357Y074245*
X050370Y074241*
X050383Y074238*
X050397Y074237*
X050411Y074236*
X050424*
X050438Y074237*
X050452Y074238*
X050465Y074241*
X050478Y074245*
X050491Y074250*
X050504Y074255*
X050516Y074262*
X050528Y074269*
X050539Y074277*
X050549Y074286*
X050559Y074296*
X050568Y074306*
X050577Y074317*
X050585Y074328*
X050591Y074340*
X050597Y074352*
X050603Y074365*
X050607Y074378*
X050610Y074392*
X050613Y074405*
X050614Y074419*
X050615Y074433*
X049777Y071308D02*
D01*
X049776Y071321*
X049775Y071335*
X049772Y071348*
X049769Y071362*
X049765Y071375*
X049759Y071388*
X049753Y071400*
X049747Y071412*
X049739Y071423*
X049730Y071434*
X049721Y071444*
X049711Y071454*
X049701Y071463*
X049690Y071471*
X049678Y071478*
X049666Y071485*
X049653Y071490*
X049640Y071495*
X049627Y071499*
X049614Y071502*
X049600Y071503*
X049586Y071504*
X049573*
X049559Y071503*
X049545Y071502*
X049532Y071499*
X049519Y071495*
X049506Y071490*
X049493Y071485*
X049481Y071478*
X049469Y071471*
X049458Y071463*
X049448Y071454*
X049438Y071444*
X049429Y071434*
X049420Y071423*
X049412Y071412*
X049406Y071400*
X049400Y071388*
X049394Y071375*
X049390Y071362*
X049387Y071348*
X049384Y071335*
X049383Y071321*
X049383Y071308*
X049383Y071294*
X049384Y071280*
X049387Y071267*
X049390Y071253*
X049394Y071240*
X049400Y071227*
X049406Y071215*
X049412Y071203*
X049420Y071192*
X049429Y071181*
X049438Y071171*
X049448Y071161*
X049458Y071152*
X049469Y071144*
X049481Y071137*
X049493Y071130*
X049506Y071125*
X049519Y071120*
X049532Y071116*
X049545Y071113*
X049559Y071112*
X049573Y071111*
X049586*
X049600Y071112*
X049614Y071113*
X049627Y071116*
X049640Y071120*
X049653Y071125*
X049666Y071130*
X049678Y071137*
X049690Y071144*
X049701Y071152*
X049711Y071161*
X049721Y071171*
X049730Y071181*
X049739Y071192*
X049747Y071203*
X049753Y071215*
X049759Y071227*
X049765Y071240*
X049769Y071253*
X049772Y071267*
X049775Y071280*
X049776Y071294*
X049777Y071308*
X048517Y082292D02*
D01*
X048516Y082305*
X048515Y082319*
X048512Y082332*
X048509Y082346*
X048505Y082359*
X048499Y082372*
X048493Y082384*
X048487Y082396*
X048479Y082407*
X048470Y082418*
X048461Y082428*
X048451Y082438*
X048441Y082447*
X048430Y082455*
X048418Y082462*
X048406Y082469*
X048393Y082474*
X048380Y082479*
X048367Y082483*
X048354Y082486*
X048340Y082487*
X048326Y082488*
X048313*
X048299Y082487*
X048285Y082486*
X048272Y082483*
X048259Y082479*
X048246Y082474*
X048233Y082469*
X048221Y082462*
X048209Y082455*
X048198Y082447*
X048188Y082438*
X048178Y082428*
X048169Y082418*
X048160Y082407*
X048152Y082396*
X048146Y082384*
X048140Y082372*
X048134Y082359*
X048130Y082346*
X048127Y082332*
X048124Y082319*
X048123Y082305*
X048123Y082292*
X048123Y082278*
X048124Y082264*
X048127Y082251*
X048130Y082237*
X048134Y082224*
X048140Y082211*
X048146Y082199*
X048152Y082187*
X048160Y082176*
X048169Y082165*
X048178Y082155*
X048188Y082145*
X048198Y082136*
X048209Y082128*
X048221Y082121*
X048233Y082114*
X048246Y082109*
X048259Y082104*
X048272Y082100*
X048285Y082097*
X048299Y082096*
X048313Y082095*
X048326*
X048340Y082096*
X048354Y082097*
X048367Y082100*
X048380Y082104*
X048393Y082109*
X048406Y082114*
X048418Y082121*
X048430Y082128*
X048441Y082136*
X048451Y082145*
X048461Y082155*
X048470Y082165*
X048479Y082176*
X048487Y082187*
X048493Y082199*
X048499Y082211*
X048505Y082224*
X048509Y082237*
X048512Y082251*
X048515Y082264*
X048516Y082278*
X048517Y082292*
X039929Y079167D02*
D01*
X039928Y079180*
X039927Y079194*
X039924Y079207*
X039921Y079221*
X039917Y079234*
X039911Y079247*
X039905Y079259*
X039899Y079271*
X039891Y079282*
X039882Y079293*
X039873Y079303*
X039863Y079313*
X039853Y079322*
X039842Y079330*
X039830Y079337*
X039818Y079344*
X039805Y079349*
X039792Y079354*
X039779Y079358*
X039766Y079361*
X039752Y079362*
X039738Y079363*
X039725*
X039711Y079362*
X039697Y079361*
X039684Y079358*
X039671Y079354*
X039658Y079349*
X039645Y079344*
X039633Y079337*
X039621Y079330*
X039610Y079322*
X039600Y079313*
X039590Y079303*
X039581Y079293*
X039572Y079282*
X039564Y079271*
X039558Y079259*
X039552Y079247*
X039546Y079234*
X039542Y079221*
X039539Y079207*
X039536Y079194*
X039535Y079180*
X039535Y079167*
X039535Y079153*
X039536Y079139*
X039539Y079126*
X039542Y079112*
X039546Y079099*
X039552Y079086*
X039558Y079074*
X039564Y079062*
X039572Y079051*
X039581Y079040*
X039590Y079030*
X039600Y079020*
X039610Y079011*
X039621Y079003*
X039633Y078996*
X039645Y078989*
X039658Y078984*
X039671Y078979*
X039684Y078975*
X039697Y078972*
X039711Y078971*
X039725Y078970*
X039738*
X039752Y078971*
X039766Y078972*
X039779Y078975*
X039792Y078979*
X039805Y078984*
X039818Y078989*
X039830Y078996*
X039842Y079003*
X039853Y079011*
X039863Y079020*
X039873Y079030*
X039882Y079040*
X039891Y079051*
X039899Y079062*
X039905Y079074*
X039911Y079086*
X039917Y079099*
X039921Y079112*
X039924Y079126*
X039927Y079139*
X039928Y079153*
X039929Y079167*
X040767Y082292D02*
D01*
X040766Y082305*
X040765Y082319*
X040762Y082332*
X040759Y082346*
X040755Y082359*
X040749Y082372*
X040743Y082384*
X040737Y082396*
X040729Y082407*
X040720Y082418*
X040711Y082428*
X040701Y082438*
X040691Y082447*
X040680Y082455*
X040668Y082462*
X040656Y082469*
X040643Y082474*
X040630Y082479*
X040617Y082483*
X040604Y082486*
X040590Y082487*
X040576Y082488*
X040563*
X040549Y082487*
X040535Y082486*
X040522Y082483*
X040509Y082479*
X040496Y082474*
X040483Y082469*
X040471Y082462*
X040459Y082455*
X040448Y082447*
X040438Y082438*
X040428Y082428*
X040419Y082418*
X040410Y082407*
X040402Y082396*
X040396Y082384*
X040390Y082372*
X040384Y082359*
X040380Y082346*
X040377Y082332*
X040374Y082319*
X040373Y082305*
X040373Y082292*
X040373Y082278*
X040374Y082264*
X040377Y082251*
X040380Y082237*
X040384Y082224*
X040390Y082211*
X040396Y082199*
X040402Y082187*
X040410Y082176*
X040419Y082165*
X040428Y082155*
X040438Y082145*
X040448Y082136*
X040459Y082128*
X040471Y082121*
X040483Y082114*
X040496Y082109*
X040509Y082104*
X040522Y082100*
X040535Y082097*
X040549Y082096*
X040563Y082095*
X040576*
X040590Y082096*
X040604Y082097*
X040617Y082100*
X040630Y082104*
X040643Y082109*
X040656Y082114*
X040668Y082121*
X040680Y082128*
X040691Y082136*
X040701Y082145*
X040711Y082155*
X040720Y082165*
X040729Y082176*
X040737Y082187*
X040743Y082199*
X040749Y082211*
X040755Y082224*
X040759Y082237*
X040762Y082251*
X040765Y082264*
X040766Y082278*
X040767Y082292*
X032279Y079217D02*
D01*
X032278Y079230*
X032277Y079244*
X032274Y079257*
X032271Y079271*
X032267Y079284*
X032261Y079297*
X032255Y079309*
X032249Y079321*
X032241Y079332*
X032232Y079343*
X032223Y079353*
X032213Y079363*
X032203Y079372*
X032192Y079380*
X032180Y079387*
X032168Y079394*
X032155Y079399*
X032142Y079404*
X032129Y079408*
X032116Y079411*
X032102Y079412*
X032088Y079413*
X032075*
X032061Y079412*
X032047Y079411*
X032034Y079408*
X032021Y079404*
X032008Y079399*
X031995Y079394*
X031983Y079387*
X031971Y079380*
X031960Y079372*
X031950Y079363*
X031940Y079353*
X031931Y079343*
X031922Y079332*
X031914Y079321*
X031908Y079309*
X031902Y079297*
X031896Y079284*
X031892Y079271*
X031889Y079257*
X031886Y079244*
X031885Y079230*
X031885Y079217*
X031885Y079203*
X031886Y079189*
X031889Y079176*
X031892Y079162*
X031896Y079149*
X031902Y079136*
X031908Y079124*
X031914Y079112*
X031922Y079101*
X031931Y079090*
X031940Y079080*
X031950Y079070*
X031960Y079061*
X031971Y079053*
X031983Y079046*
X031995Y079039*
X032008Y079034*
X032021Y079029*
X032034Y079025*
X032047Y079022*
X032061Y079021*
X032075Y079020*
X032088*
X032102Y079021*
X032116Y079022*
X032129Y079025*
X032142Y079029*
X032155Y079034*
X032168Y079039*
X032180Y079046*
X032192Y079053*
X032203Y079061*
X032213Y079070*
X032223Y079080*
X032232Y079090*
X032241Y079101*
X032249Y079112*
X032255Y079124*
X032261Y079136*
X032267Y079149*
X032271Y079162*
X032274Y079176*
X032277Y079189*
X032278Y079203*
X032279Y079217*
X032717Y082342D02*
D01*
X032716Y082355*
X032715Y082369*
X032712Y082382*
X032709Y082396*
X032705Y082409*
X032699Y082422*
X032693Y082434*
X032687Y082446*
X032679Y082457*
X032670Y082468*
X032661Y082478*
X032651Y082488*
X032641Y082497*
X032630Y082505*
X032618Y082512*
X032606Y082519*
X032593Y082524*
X032580Y082529*
X032567Y082533*
X032554Y082536*
X032540Y082537*
X032526Y082538*
X032513*
X032499Y082537*
X032485Y082536*
X032472Y082533*
X032459Y082529*
X032446Y082524*
X032433Y082519*
X032421Y082512*
X032409Y082505*
X032398Y082497*
X032388Y082488*
X032378Y082478*
X032369Y082468*
X032360Y082457*
X032352Y082446*
X032346Y082434*
X032340Y082422*
X032334Y082409*
X032330Y082396*
X032327Y082382*
X032324Y082369*
X032323Y082355*
X032323Y082342*
X032323Y082328*
X032324Y082314*
X032327Y082301*
X032330Y082287*
X032334Y082274*
X032340Y082261*
X032346Y082249*
X032352Y082237*
X032360Y082226*
X032369Y082215*
X032378Y082205*
X032388Y082195*
X032398Y082186*
X032409Y082178*
X032421Y082171*
X032433Y082164*
X032446Y082159*
X032459Y082154*
X032472Y082150*
X032485Y082147*
X032499Y082146*
X032513Y082145*
X032526*
X032540Y082146*
X032554Y082147*
X032567Y082150*
X032580Y082154*
X032593Y082159*
X032606Y082164*
X032618Y082171*
X032630Y082178*
X032641Y082186*
X032651Y082195*
X032661Y082205*
X032670Y082215*
X032679Y082226*
X032687Y082237*
X032693Y082249*
X032699Y082261*
X032705Y082274*
X032709Y082287*
X032712Y082301*
X032715Y082314*
X032716Y082328*
X032717Y082342*
X018277Y071208D02*
D01*
X018276Y071221*
X018275Y071235*
X018272Y071248*
X018269Y071262*
X018265Y071275*
X018259Y071288*
X018253Y071300*
X018247Y071312*
X018239Y071323*
X018230Y071334*
X018221Y071344*
X018211Y071354*
X018201Y071363*
X018190Y071371*
X018178Y071378*
X018166Y071385*
X018153Y071390*
X018140Y071395*
X018127Y071399*
X018114Y071402*
X018100Y071403*
X018086Y071404*
X018073*
X018059Y071403*
X018045Y071402*
X018032Y071399*
X018019Y071395*
X018006Y071390*
X017993Y071385*
X017981Y071378*
X017969Y071371*
X017958Y071363*
X017948Y071354*
X017938Y071344*
X017929Y071334*
X017920Y071323*
X017912Y071312*
X017906Y071300*
X017900Y071288*
X017894Y071275*
X017890Y071262*
X017887Y071248*
X017884Y071235*
X017883Y071221*
X017883Y071208*
X017883Y071194*
X017884Y071180*
X017887Y071167*
X017890Y071153*
X017894Y071140*
X017900Y071127*
X017906Y071115*
X017912Y071103*
X017920Y071092*
X017929Y071081*
X017938Y071071*
X017948Y071061*
X017958Y071052*
X017969Y071044*
X017981Y071037*
X017993Y071030*
X018006Y071025*
X018019Y071020*
X018032Y071016*
X018045Y071013*
X018059Y071012*
X018073Y071011*
X018086*
X018100Y071012*
X018114Y071013*
X018127Y071016*
X018140Y071020*
X018153Y071025*
X018166Y071030*
X018178Y071037*
X018190Y071044*
X018201Y071052*
X018211Y071061*
X018221Y071071*
X018230Y071081*
X018239Y071092*
X018247Y071103*
X018253Y071115*
X018259Y071127*
X018265Y071140*
X018269Y071153*
X018272Y071167*
X018275Y071180*
X018276Y071194*
X018277Y071208*
X019065Y074338D02*
D01*
X019064Y074351*
X019063Y074365*
X019060Y074378*
X019057Y074392*
X019053Y074405*
X019047Y074418*
X019041Y074430*
X019035Y074442*
X019027Y074453*
X019018Y074464*
X019009Y074474*
X018999Y074484*
X018989Y074493*
X018978Y074501*
X018966Y074508*
X018954Y074515*
X018941Y074520*
X018928Y074525*
X018915Y074529*
X018902Y074532*
X018888Y074533*
X018874Y074534*
X018861*
X018847Y074533*
X018833Y074532*
X018820Y074529*
X018807Y074525*
X018794Y074520*
X018781Y074515*
X018769Y074508*
X018757Y074501*
X018746Y074493*
X018736Y074484*
X018726Y074474*
X018717Y074464*
X018708Y074453*
X018700Y074442*
X018694Y074430*
X018688Y074418*
X018682Y074405*
X018678Y074392*
X018675Y074378*
X018672Y074365*
X018671Y074351*
X018671Y074338*
X018671Y074324*
X018672Y074310*
X018675Y074297*
X018678Y074283*
X018682Y074270*
X018688Y074257*
X018694Y074245*
X018700Y074233*
X018708Y074222*
X018717Y074211*
X018726Y074201*
X018736Y074191*
X018746Y074182*
X018757Y074174*
X018769Y074167*
X018781Y074160*
X018794Y074155*
X018807Y074150*
X018820Y074146*
X018833Y074143*
X018847Y074142*
X018861Y074141*
X018874*
X018888Y074142*
X018902Y074143*
X018915Y074146*
X018928Y074150*
X018941Y074155*
X018954Y074160*
X018966Y074167*
X018978Y074174*
X018989Y074182*
X018999Y074191*
X019009Y074201*
X019018Y074211*
X019027Y074222*
X019035Y074233*
X019041Y074245*
X019047Y074257*
X019053Y074270*
X019057Y074283*
X019060Y074297*
X019063Y074310*
X019064Y074324*
X019065Y074338*
X021378Y079813D02*
X024822D01*
X021378Y081387D02*
X024822D01*
X021378Y079813D02*
Y081387D01*
X024822Y079813D02*
Y081387D01*
X024034Y082913D02*
Y084487D01*
X022066Y082913D02*
Y084487D01*
X024034*
X022066Y082913D02*
X024034D01*
X023678Y074737D02*
X027122D01*
X023678Y073163D02*
X027122D01*
Y074737*
X023678Y073163D02*
Y074737D01*
X024316Y070063D02*
Y071637D01*
X026284Y070063D02*
Y071637D01*
X024316Y070063D02*
X026284D01*
X024316Y071637D02*
X026284D01*
X039428Y074737D02*
X042872D01*
X039428Y073163D02*
X042872D01*
Y074737*
X039428Y073163D02*
Y074737D01*
X031478D02*
X034922D01*
X031478Y073163D02*
X034922D01*
Y074737*
X031478Y073163D02*
Y074737D01*
X032216Y070063D02*
Y071637D01*
X034184Y070063D02*
Y071637D01*
X032216Y070063D02*
X034184D01*
X032216Y071637D02*
X034184D01*
X040166Y070063D02*
Y071637D01*
X042134Y070063D02*
Y071637D01*
X040166Y070063D02*
X042134D01*
X040166Y071637D02*
X042134D01*
X047128Y078807D02*
X050572D01*
X047128Y080382D02*
X050572D01*
X047128Y078807D02*
Y080382D01*
X050572Y078807D02*
Y080382D01*
X047328Y074787D02*
X050772D01*
X047328Y073213D02*
X050772D01*
Y074787*
X047328Y073213D02*
Y074787D01*
X047966Y070087D02*
Y071662D01*
X049934Y070087D02*
Y071662D01*
X047966Y070087D02*
X049934D01*
X047966Y071662D02*
X049934D01*
Y081938D02*
Y083513D01*
X047966Y081938D02*
Y083513D01*
X049934*
X047966Y081938D02*
X049934D01*
X039378Y078813D02*
X042822D01*
X039378Y080387D02*
X042822D01*
X039378Y078813D02*
Y080387D01*
X042822Y078813D02*
Y080387D01*
X042184Y081938D02*
Y083513D01*
X040216Y081938D02*
Y083513D01*
X042184*
X040216Y081938D02*
X042184D01*
X031728Y078863D02*
X035172D01*
X031728Y080437D02*
X035172D01*
X031728Y078863D02*
Y080437D01*
X035172Y078863D02*
Y080437D01*
X034134Y081988D02*
Y083563D01*
X032166Y081988D02*
Y083563D01*
X034134*
X032166Y081988D02*
X034134D01*
X016466Y069987D02*
Y071562D01*
X018434Y069987D02*
Y071562D01*
X016466Y069987D02*
X018434D01*
X016466Y071562D02*
X018434D01*
X015778Y074693D02*
X019222D01*
X015778Y073118D02*
X019222D01*
Y074693*
X015778Y073118D02*
Y074693D01*
M02*