%FSDAX24Y24*%
%MOIN*%
%SFA1B1*%

%IPPOS*%
%ADD51C,0.003900*%
%LNde-220124-1*%
%LPD*%
G54D51*
X021269Y079124D02*
X024931D01*
X021269Y082076D02*
X024931D01*
X021269Y079124D02*
Y082076D01*
X024931Y079124D02*
Y082076D01*
X023100Y080403D02*
Y080797D01*
X022903Y080600D02*
X023297D01*
X022853Y083700D02*
X023247D01*
X023050Y083503D02*
Y083897D01*
X024074Y082361D02*
Y085039D01*
X022026Y082361D02*
Y085039D01*
X024074*
X022026Y082361D02*
X024074D01*
X023569Y075426D02*
X027231D01*
X023569Y072474D02*
X027231D01*
Y075426*
X023569Y072474D02*
Y075426D01*
X025400Y073753D02*
Y074147D01*
X025203Y073950D02*
X025597D01*
X025103Y070850D02*
X025497D01*
X025300Y070653D02*
Y071047D01*
X024276Y069511D02*
Y072189D01*
X026324Y069511D02*
Y072189D01*
X024276Y069511D02*
X026324D01*
X024276Y072189D02*
X026324D01*
X039319Y075426D02*
X042981D01*
X039319Y072474D02*
X042981D01*
Y075426*
X039319Y072474D02*
Y075426D01*
X041150Y073753D02*
Y074147D01*
X040953Y073950D02*
X041347D01*
X031369Y075426D02*
X035031D01*
X031369Y072474D02*
X035031D01*
Y075426*
X031369Y072474D02*
Y075426D01*
X033200Y073753D02*
Y074147D01*
X033003Y073950D02*
X033397D01*
X033003Y070850D02*
X033397D01*
X033200Y070653D02*
Y071047D01*
X032176Y069511D02*
Y072189D01*
X034224Y069511D02*
Y072189D01*
X032176Y069511D02*
X034224D01*
X032176Y072189D02*
X034224D01*
X040953Y070850D02*
X041347D01*
X041150Y070653D02*
Y071047D01*
X040126Y069511D02*
Y072189D01*
X042174Y069511D02*
Y072189D01*
X040126Y069511D02*
X042174D01*
X040126Y072189D02*
X042174D01*
X047019Y078119D02*
X050681D01*
X047019Y081071D02*
X050681D01*
X047019Y078119D02*
Y081071D01*
X050681Y078119D02*
Y081071D01*
X048850Y079398D02*
Y079792D01*
X048653Y079595D02*
X049047D01*
X047219Y075476D02*
X050881D01*
X047219Y072524D02*
X050881D01*
Y075476*
X047219Y072524D02*
Y075476D01*
X049050Y073803D02*
Y074197D01*
X048853Y074000D02*
X049247D01*
X048753Y070875D02*
X049147D01*
X048950Y070678D02*
Y071072D01*
X047926Y069536D02*
Y072213D01*
X049974Y069536D02*
Y072213D01*
X047926Y069536D02*
X049974D01*
X047926Y072213D02*
X049974D01*
X048753Y082725D02*
X049147D01*
X048950Y082528D02*
Y082922D01*
X049974Y081387D02*
Y084064D01*
X047926Y081387D02*
Y084064D01*
X049974*
X047926Y081387D02*
X049974D01*
X039269Y078124D02*
X042931D01*
X039269Y081076D02*
X042931D01*
X039269Y078124D02*
Y081076D01*
X042931Y078124D02*
Y081076D01*
X041100Y079403D02*
Y079797D01*
X040903Y079600D02*
X041297D01*
X041003Y082725D02*
X041397D01*
X041200Y082528D02*
Y082922D01*
X042224Y081387D02*
Y084064D01*
X040176Y081387D02*
Y084064D01*
X042224*
X040176Y081387D02*
X042224D01*
X031619Y078174D02*
X035281D01*
X031619Y081126D02*
X035281D01*
X031619Y078174D02*
Y081126D01*
X035281Y078174D02*
Y081126D01*
X033450Y079453D02*
Y079847D01*
X033253Y079650D02*
X033647D01*
X032953Y082775D02*
X033347D01*
X033150Y082578D02*
Y082972D01*
X034174Y081437D02*
Y084114D01*
X032126Y081437D02*
Y084114D01*
X034174*
X032126Y081437D02*
X034174D01*
X017253Y070775D02*
X017647D01*
X017450Y070578D02*
Y070972D01*
X016426Y069436D02*
Y072113D01*
X018474Y069436D02*
Y072113D01*
X016426Y069436D02*
X018474D01*
X016426Y072113D02*
X018474D01*
X015669Y075381D02*
X019331D01*
X015669Y072429D02*
X019331D01*
Y075381*
X015669Y072429D02*
Y075381D01*
X017500Y073708D02*
Y074102D01*
X017303Y073905D02*
X017697D01*
M02*