%FSDAX24Y24*%
%MOIN*%
%SFA1B1*%

%IPPOS*%
%ADD44R,0.074900X0.074900*%
%ADD45C,0.074900*%
%ADD46R,0.067100X0.067100*%
%ADD47C,0.067100*%
%ADD48R,0.067100X0.067100*%
%ADD49C,0.106400*%
%ADD50C,0.058000*%
%LNde-220124-1*%
%LPD*%
G54D44*
X017700Y081950D03*
G54D45*
X017700Y080950D03*
Y079950D03*
G54D46*
X015234Y079000D03*
Y083150D03*
G54D47*
X013266Y079000D03*
Y083150D03*
X029300Y088085D03*
X027700Y087100D03*
X026100D03*
G54D48*
X029300Y087085D03*
X027700Y088100D03*
X026100D03*
G54D49*
X021866Y086950D03*
X023834D03*
X026219Y066650D03*
X024250D03*
X040266Y086900D03*
X042234D03*
X049934Y066650D03*
X047966D03*
X042234D03*
X040266D03*
X047916Y086900D03*
X049884D03*
X032116D03*
X034084D03*
X018419Y066650D03*
X016450D03*
X015284Y087000D03*
X013316D03*
X034084Y066650D03*
X032116D03*
G54D50*
X021400Y082300D03*
X024850Y083100D03*
X023800Y083950D03*
X023850Y080750D03*
X023100D03*
X021700Y078600D03*
X027050Y072200D03*
X024550Y070600D03*
X023450Y071550D03*
X024650Y073800D03*
X025400D03*
X026850Y076050D03*
X034550Y075950D03*
X032450Y070600D03*
X031400Y071500D03*
X032450Y073800D03*
X033200D03*
X034800Y072150D03*
X042850D03*
X040400Y070600D03*
X039400Y071500D03*
X040400Y073800D03*
X041150D03*
X050750Y072250D03*
X049050Y073850D03*
X048300D03*
X048200Y070650D03*
X047100Y071500D03*
X050450Y076000D03*
X049500Y079750D03*
X048850D03*
X047200Y081400D03*
X047500Y077550D03*
X050800Y081950D03*
X049700Y082900D03*
X041800Y079700D03*
X041100D03*
X039450Y081300D03*
X039700Y077550D03*
X041950Y082950D03*
X043100Y082000D03*
X031750Y081300D03*
X033450Y079700D03*
X033900Y083000D03*
X034950Y081850D03*
X034100Y079700D03*
X018950Y075850D03*
X017500Y073800D03*
X016750D03*
X019150Y072100D03*
X015600Y071400D03*
X016700Y070550D03*
X042550Y076000D03*
X031750Y077600D03*
X026100Y084550D03*
X046300Y069500D03*
X051600Y083750D03*
X043800Y084600D03*
X035850Y084550D03*
X038550Y069450D03*
X030600D03*
X022650D03*
X014750D03*
X042920Y077974D03*
X047200Y075600D03*
M02*